<?xml version="1.0" encoding="utf-8"?>
<!-- Generator: Adobe Illustrator 22.1.0, SVG Export Plug-In . SVG Version: 6.00 Build 0)  -->
<svg version="1.1" id="Layer_1" xmlns="http://www.w3.org/2000/svg" xmlns:xlink="http://www.w3.org/1999/xlink" x="0px" y="0px"
	 viewBox="0 0 163.4 35.5" style="enable-background:new 0 0 163.4 35.5;width: 160px; height: 35px;" xml:space="preserve">
<style type="text/css">
	.st0{fill:#EB80A8;}
</style>
<g>
	<g>
		<path d="M17.7,24.7l-1.8-5.1H7.5l-1.8,5.1H0.8l8.8-23h4.5l8.7,23H17.7z M12.9,11c-0.5-1.3-0.9-2.7-1.1-3.6
			C11.5,8.3,11,9.6,10.6,11l-1.5,4.2h5.3L12.9,11z"/>
		<path d="M34.1,24.7v-1.1c-0.8,0.8-2.2,1.5-4,1.5c-4.4,0-6.4-3-6.4-7.9V7.4h4.5v9.3c0,3.1,1.1,4,2.9,4c1.9,0,3-0.9,3-3.9V7.4h4.5
			v17.2H34.1z"/>
		<path d="M50,24c-0.8,0.6-2.1,1.1-3.5,1.1c-2.8,0-4.6-2.2-4.6-5.2V3l4.5-2.3v6.7h4.1v4.3h-4.1v6.9c0,1.6,0.6,2.1,1.7,2.1
			c0.8,0,1.4-0.4,2.6-1.3L50,24z"/>
		<path d="M59.4,25c-4.5,0-7.8-3.7-7.8-9c0-5.3,3.3-9,7.8-9c4.5,0,7.8,3.7,7.8,9C67.3,21.3,63.9,25,59.4,25z M59.4,11.4
			c-2.2,0-3.2,2-3.2,4.6c0,2.7,1,4.6,3.2,4.6c2.2,0,3.2-2.2,3.2-4.6C62.7,13.4,61.6,11.4,59.4,11.4z"/>
		<path d="M84.4,24.7L76,12.1c-0.6-0.9-1.3-2-1.6-2.6c0,0.9,0.1,3.7,0.1,5v10.1h-4.5v-23h4.4l8.1,12.1c0.6,0.9,1.3,2,1.6,2.6
			c0-0.9-0.1-3.7-0.1-5V1.7h4.5v23H84.4z"/>
		<path d="M101.5,24.7v-1.1c-0.8,0.9-2.3,1.5-3.9,1.5c-3.2,0-6.4-2-6.4-6.1c0-3.8,3.1-5.7,7-5.7c1.6,0,2.6,0.3,3.3,0.7V13
			c0-1.2-0.8-2.2-2.5-2.2c-2.1,0-3.2,0.3-4.7,1.1l-1.7-3.2c2-1.1,3.7-1.7,6.5-1.7c4.2,0,7,2.2,7,6v11.6H101.5z M101.5,17.4
			c-0.8-0.5-1.5-0.7-3.2-0.7c-1.7,0-2.6,0.8-2.6,2.2c0,1.2,0.7,2.3,2.6,2.3c1.5,0,2.7-0.8,3.2-1.6V17.4z"/>
		<path d="M117.2,24c-0.8,0.6-2.1,1.1-3.5,1.1c-2.8,0-4.6-2.2-4.6-5.2V3l4.5-2.3v6.7h4.1v4.3h-4.1v6.9c0,1.6,0.6,2.1,1.7,2.1
			c0.8,0,1.4-0.4,2.6-1.3L117.2,24z"/>
		<path d="M120.6,24.7V7.4h4.5v17.2H120.6z"/>
		<path d="M135,25c-4.5,0-7.8-3.7-7.8-9c0-5.3,3.3-9,7.8-9c4.5,0,7.8,3.7,7.8,9C142.8,21.3,139.5,25,135,25z M135,11.4
			c-2.2,0-3.2,2-3.2,4.6c0,2.7,1,4.6,3.2,4.6c2.2,0,3.2-2.2,3.2-4.6C138.2,13.4,137.2,11.4,135,11.4z"/>
		<path d="M155.1,24.7v-9.3c0-3.1-1.1-4-2.9-4c-1.9,0-3,0.9-3,3.9v9.4h-4.5V7.4h4.5v1.1c0.8-0.8,2.2-1.5,4-1.5c4.4,0,6.4,3,6.4,7.9
			v9.7H155.1z"/>
	</g>
	<path d="M161.6,24.6c-0.6,0-1-0.4-1-1c0-0.6,0.4-1,1-1c0.6,0,1,0.4,1,1C162.6,24.2,162.1,24.6,161.6,24.6z M161.6,22.8
		c-0.5,0-0.8,0.4-0.8,0.8c0,0.5,0.4,0.8,0.8,0.8c0.5,0,0.8-0.4,0.8-0.8C162.4,23.1,162,22.8,161.6,22.8z M161.8,23.7l0.2,0.4h-0.2
		l-0.2-0.4h-0.2v0.4h-0.2v-1.1h0.5c0.2,0,0.4,0.1,0.4,0.3C162,23.6,161.9,23.7,161.8,23.7z M161.7,23.2h-0.3v0.3h0.3
		c0.1,0,0.2,0,0.2-0.2C161.8,23.3,161.8,23.2,161.7,23.2z"/>
	<path d="M139.8,28.1c-4.8,0-9.6,0-14.5,0.1c-6.7,0.1-13.5,0.3-20.2,0.7c-6.6,0.3-13.1,0.7-19.7,1.2c-5.1,0.4-10.2,0.8-15.4,1.2
		c0.1,0,0.3,0,0.4,0c5.5-0.3,11-0.6,16.5-0.8c6.3-0.3,12.7-0.4,19-0.6c3.9-0.1,7.8-0.1,11.7-0.1c2.6,0,5.2,0,7.8,0
		c6.3,0,12.6,0.2,18.8,0.4c2.9,0.1,5.7,0.2,8.6,0.4c1.1,0.1,2.3,0.1,3.4,0.2c0.6,0,1.2,0.1,1.8,0.1c0.2,0,0.4,0.1,0.6,0.1
		c0.4,0,0.7-0.1,0.7-0.6c0-0.4,0-0.7,0.1-1.1c0,0,0-0.1,0-0.1c0-0.4-0.1-0.8-0.6-0.8c-0.6,0-1.1,0-1.7-0.1c-1.2,0-2.5-0.1-3.7-0.1
		c-2.9-0.1-5.8-0.1-8.8-0.1C143.2,28.1,141.5,28.1,139.8,28.1"/>
	<path class="st0" d="M122.3,32c-1.5,0-2.9,0-4.4,0c-5,0-10,0.1-15,0.3c-3.9,0.1-7.8,0.3-11.7,0.4c0.1,0,0.2,0,0.3,0
		c4.2-0.1,8.4-0.1,12.6-0.1c0.6,0,1.2,0,1.7,0c4.2,0,8.5,0.1,12.7,0.1c5,0.1,9.9,0.3,14.9,0.5c4.8,0.2,9.5,0.5,14.3,0.8
		c2.2,0.1,4.4,0.3,6.5,0.5c0.9,0.1,1.7,0.1,2.6,0.2c0.5,0,0.9,0.1,1.4,0.1c0.1,0,0.3,0.1,0.5,0.1c0.2,0,0.5-0.1,0.5-0.4
		c0-0.2,0-0.5,0.1-0.7c0,0,0-0.1,0-0.1c0-0.3-0.1-0.5-0.4-0.5c-0.4,0-0.9-0.1-1.3-0.1c-0.9-0.1-1.9-0.1-2.8-0.2
		c-2.2-0.1-4.4-0.2-6.7-0.3c-4.9-0.2-9.9-0.3-14.8-0.4C129.7,32,126,32,122.3,32"/>
</g>
</svg>
